<svg width="34" height="33" viewBox="0 0 34 33" fill="none" xmlns="http://www.w3.org/2000/svg">
<path d="M21.3335 15.1045L13.6053 24.6988C12.8693 25.6129 11.3072 26.3599 10.1332 26.3599H8.00017C7.69916 26.3599 7.45316 26.3089 7.26415 26.2209C6.45214 25.9189 5.86613 25.1408 5.86613 24.2268V7.16028H2.13304C0.96002 7.16028 0 8.1203 0 9.29334V30.627C0 31.8 0.96002 32.7601 2.13304 32.7601H19.2004C20.3734 32.7601 21.3335 31.8 21.3335 30.627V26.3599V15.1045Z" fill="#2DCA73"/>
<path d="M31.467 0.76001H14.3996C13.2266 0.76001 12.2666 1.72004 12.2666 2.89307V7.16021V18.4156L19.9948 8.82126C20.7308 7.90723 22.2928 7.16021 23.4668 7.16021H25.5999C25.9009 7.16021 26.1469 7.21121 26.3359 7.29922C27.1479 7.60123 27.7339 8.37925 27.7339 9.29327V26.3608H31.467C32.64 26.3608 33.6001 25.4008 33.6001 24.2277V2.89307C33.6001 1.72004 32.64 0.76001 31.467 0.76001Z" fill="#2DCA73"/>
</svg>
