<svg width="140" height="33" viewBox="0 0 140 33" fill="none" xmlns="http://www.w3.org/2000/svg">
<path d="M21.3335 15.1045L13.6053 24.6988C12.8693 25.6129 11.3072 26.3599 10.1332 26.3599H8.00017C7.69916 26.3599 7.45316 26.3089 7.26415 26.2209C6.45214 25.9189 5.86613 25.1408 5.86613 24.2268V7.16028H2.13304C0.96002 7.16028 0 8.1203 0 9.29334V30.627C0 31.8 0.96002 32.7601 2.13304 32.7601H19.2004C20.3734 32.7601 21.3335 31.8 21.3335 30.627V26.3599V15.1045Z" fill="#2DCA73"/>
<path d="M31.467 0.76001H14.3996C13.2266 0.76001 12.2666 1.72004 12.2666 2.89307V7.16021V18.4156L19.9948 8.82126C20.7308 7.90723 22.2928 7.16021 23.4668 7.16021H25.5999C25.9009 7.16021 26.1469 7.21121 26.3359 7.29922C27.1479 7.60123 27.7339 8.37925 27.7339 9.29327V26.3608H31.467C32.64 26.3608 33.6001 25.4008 33.6001 24.2277V2.89307C33.6001 1.72004 32.64 0.76001 31.467 0.76001Z" fill="#2DCA73"/>
<path d="M49.9144 10.8409V21.3844H46.9905V20.1497C46.5981 20.607 46.114 20.9532 45.5384 21.1884C44.9759 21.4236 44.3741 21.5412 43.7331 21.5412C42.3464 21.5412 41.241 21.1427 40.4168 20.3457C39.6057 19.5487 39.2002 18.3664 39.2002 16.7986V10.8409H42.2614V16.3478C42.2614 18.0463 42.9744 18.8955 44.4003 18.8955C45.146 18.8955 45.7412 18.6603 46.186 18.19C46.6308 17.7066 46.8532 16.9945 46.8532 16.0539V10.8409H49.9144Z" fill="#4F4F4F"/>
<path d="M57.8556 21.5412C56.7305 21.5412 55.7167 21.3125 54.814 20.8553C53.9244 20.3849 53.2245 19.7382 52.7143 18.9151C52.2172 18.092 51.9687 17.1578 51.9687 16.1126C51.9687 15.0674 52.2172 14.1333 52.7143 13.3102C53.2245 12.4871 53.9244 11.8469 54.814 11.3896C55.7167 10.9193 56.7305 10.6841 57.8556 10.6841C58.9675 10.6841 59.9356 10.9193 60.7598 11.3896C61.597 11.8469 62.2053 12.5067 62.5847 13.369L60.2103 14.6428C59.6609 13.676 58.8694 13.1926 57.8359 13.1926C57.0379 13.1926 56.3773 13.4539 55.854 13.9765C55.3307 14.4991 55.0691 15.2112 55.0691 16.1126C55.0691 17.0141 55.3307 17.7262 55.854 18.2488C56.3773 18.7714 57.0379 19.0327 57.8359 19.0327C58.8825 19.0327 59.674 18.5493 60.2103 17.5825L62.5847 18.8759C62.2053 19.7121 61.597 20.3653 60.7598 20.8357C59.9356 21.306 58.9675 21.5412 57.8556 21.5412Z" fill="#4F4F4F"/>
<path d="M74.9432 10.8409V21.3844H71.8821V13.3494H67.4865V21.3844H64.4449V10.8409H74.9432Z" fill="#4F4F4F"/>
<path d="M82.8233 21.5412C81.7113 21.5412 80.7105 21.3125 79.821 20.8553C78.9445 20.3849 78.2576 19.7382 77.7605 18.9151C77.2634 18.092 77.0149 17.1578 77.0149 16.1126C77.0149 15.0674 77.2634 14.1333 77.7605 13.3102C78.2576 12.4871 78.9445 11.8469 79.821 11.3896C80.7105 10.9193 81.7113 10.6841 82.8233 10.6841C83.9352 10.6841 84.9295 10.9193 85.806 11.3896C86.6825 11.8469 87.3693 12.4871 87.8664 13.3102C88.3635 14.1333 88.6121 15.0674 88.6121 16.1126C88.6121 17.1578 88.3635 18.092 87.8664 18.9151C87.3693 19.7382 86.6825 20.3849 85.806 20.8553C84.9295 21.3125 83.9352 21.5412 82.8233 21.5412ZM82.8233 19.0327C83.6082 19.0327 84.2492 18.7714 84.7463 18.2488C85.2565 17.7131 85.5116 17.0011 85.5116 16.1126C85.5116 15.2242 85.2565 14.5187 84.7463 13.9961C84.2492 13.4604 83.6082 13.1926 82.8233 13.1926C82.0384 13.1926 81.3908 13.4604 80.8806 13.9961C80.3704 14.5187 80.1153 15.2242 80.1153 16.1126C80.1153 17.0011 80.3704 17.7131 80.8806 18.2488C81.3908 18.7714 82.0384 19.0327 82.8233 19.0327Z" fill="#4F4F4F"/>
<path d="M100.69 10.8409V21.3844H97.6286V13.3494H94.2926L94.1945 15.2112C94.1422 16.5961 94.0114 17.7458 93.8021 18.6603C93.5927 19.5749 93.2526 20.2935 92.7817 20.8161C92.3107 21.3387 91.6566 21.6 90.8194 21.6C90.3746 21.6 89.8447 21.5216 89.2299 21.3648L89.3869 18.8563C89.5962 18.8824 89.7466 18.8955 89.8382 18.8955C90.2961 18.8955 90.6362 18.7322 90.8586 18.4056C91.0941 18.0659 91.2511 17.6413 91.3296 17.1317C91.4081 16.6091 91.4669 15.9232 91.5062 15.074L91.6631 10.8409H100.69Z" fill="#4F4F4F"/>
<path d="M103.634 10.8409H106.675V14.9564H111.267V10.8409H114.328V21.3844H111.267V17.4453H106.675V21.3844H103.634V10.8409Z" fill="#4F4F4F"/>
<path d="M126.638 10.8409V21.3844H123.911V18.3664H121.654L119.652 21.3844H116.395L118.809 17.9352C118.076 17.6478 117.514 17.2362 117.121 16.7006C116.742 16.1518 116.552 15.4921 116.552 14.7212C116.552 13.48 116.997 12.5263 117.886 11.86C118.789 11.1806 120.025 10.8409 121.595 10.8409H126.638ZM121.654 13.3298C121 13.3298 120.503 13.4474 120.163 13.6825C119.836 13.9177 119.672 14.2966 119.672 14.8192C119.672 15.3418 119.829 15.7272 120.143 15.9755C120.47 16.2106 120.961 16.3282 121.615 16.3282H123.911V13.3298H121.654Z" fill="#4F4F4F"/>
<path d="M140 10.8409V21.3844H137.076V20.1497C136.684 20.607 136.2 20.9532 135.624 21.1884C135.062 21.4236 134.46 21.5412 133.819 21.5412C132.432 21.5412 131.327 21.1427 130.503 20.3457C129.692 19.5487 129.286 18.3664 129.286 16.7986V10.8409H132.347V16.3478C132.347 18.0463 133.06 18.8955 134.486 18.8955C135.232 18.8955 135.827 18.6603 136.272 18.19C136.717 17.7066 136.939 16.9945 136.939 16.0539V10.8409H140ZM134.565 9.70425C132.262 9.70425 131.104 8.69171 131.091 6.66663H133.093C133.106 7.1239 133.23 7.48319 133.466 7.74449C133.714 7.99273 134.074 8.11684 134.545 8.11684C135.016 8.11684 135.376 7.99273 135.624 7.74449C135.886 7.48319 136.017 7.1239 136.017 6.66663H138.058C138.044 8.69171 136.88 9.70425 134.565 9.70425Z" fill="#4F4F4F"/>
</svg>
